<?xml version="1.0" encoding="UTF-8"?>
<svg version="1.1" xmlns="http://www.w3.org/2000/svg" width="512" height="512">
<path d="M0 0 C4.24636026 2.42649158 6.39327866 4.39011177 8.4921875 8.78125 C9.81739253 9.46393138 11.15030932 10.1319541 12.4921875 10.78125 C12.8221875 11.77125 13.1521875 12.76125 13.4921875 13.78125 C14.1521875 14.11125 14.8121875 14.44125 15.4921875 14.78125 C16.1521875 15.11125 16.8121875 15.44125 17.4921875 15.78125 C17.8221875 16.77125 18.1521875 17.76125 18.4921875 18.78125 C19.82273017 19.45346903 21.15672267 20.11886348 22.4921875 20.78125 C24.28217427 22.38607493 26.01831888 24.05155142 27.71972656 25.75 C28.48138123 26.50639771 28.48138123 26.50639771 29.25842285 27.27807617 C30.92994189 28.94081536 32.594066 30.61073623 34.2578125 32.28125 C35.41765587 33.43974607 36.577796 34.59794512 37.73822021 35.75585938 C40.16566103 38.18035436 42.58945384 40.60842362 45.01074219 43.0390625 C48.12014447 46.15988442 51.23847262 49.27160864 54.35956192 52.3807373 C56.75485533 54.76881925 59.14538394 57.16162493 61.53447723 59.5559082 C62.68291002 60.70567814 63.83283855 61.85395602 64.98426056 63.00073242 C66.58846159 64.59987719 68.18614942 66.2052525 69.78222656 67.8125 C70.69393616 68.72580078 71.60564575 69.63910156 72.54498291 70.58007812 C74.4921875 72.78125 74.4921875 72.78125 74.4921875 74.78125 C75.1315625 75.049375 75.7709375 75.3175 76.4296875 75.59375 C78.4921875 76.78125 78.4921875 76.78125 79.4921875 79.78125 C80.1521875 80.11125 80.8121875 80.44125 81.4921875 80.78125 C82.1521875 81.11125 82.8121875 81.44125 83.4921875 81.78125 C83.8221875 82.77125 84.1521875 83.76125 84.4921875 84.78125 C85.1521875 85.11125 85.8121875 85.44125 86.4921875 85.78125 C87.1521875 86.11125 87.8121875 86.44125 88.4921875 86.78125 C88.8221875 87.77125 89.1521875 88.76125 89.4921875 89.78125 C90.1521875 90.11125 90.8121875 90.44125 91.4921875 90.78125 C92.1521875 91.11125 92.8121875 91.44125 93.4921875 91.78125 C93.8221875 92.77125 94.1521875 93.76125 94.4921875 94.78125 C95.80320032 95.49080451 97.14026576 96.15313391 98.4921875 96.78125 C105.27691571 102.12403373 109.76001379 108.73368882 111.0078125 117.3359375 C111.44665183 127.09013898 109.36734998 134.89882255 103.07421875 142.4921875 C101.6796875 143.78125 101.6796875 143.78125 98.4921875 145.78125 C97.88117188 146.16925781 97.27015625 146.55726563 96.640625 146.95703125 C89.68622121 150.74679062 82.21472022 150.73627537 74.4921875 149.78125 C65.50959427 146.90493406 59.3231964 140.85340585 53.34375 133.8203125 C51.50268933 131.79281531 49.58203369 130.04834002 47.4921875 128.28125 C44.04182073 125.36170889 41.18769737 122.1941253 38.2734375 118.75 C36.4593929 116.74500334 34.55511073 115.02680043 32.4921875 113.28125 C29.72948909 110.94358211 27.32985539 108.54394841 24.9921875 105.78125 C22.03144254 102.2864894 18.82600297 99.33332152 15.33984375 96.37109375 C12.92779264 94.29560791 10.71127839 92.06031632 8.4921875 89.78125 C7.2546875 88.54375 7.2546875 88.54375 5.9921875 87.28125 C-6.5078125 74.78125 -6.5078125 74.78125 -8.8203125 71.90625 C-11.6756604 69.64853306 -12.1456318 69.42793795 -15.5703125 69.65625 C-19.74911984 70.49045221 -21.08985982 72.27131869 -23.5078125 75.78125 C-24.58770642 76.74660972 -25.69460594 77.68222654 -26.8203125 78.59375 C-30.21634302 81.41529142 -33.0245257 84.54250255 -35.8828125 87.8984375 C-37.97271997 90.31991683 -40.21681315 92.55054011 -42.5078125 94.78125 C-43.3328125 95.60625 -44.1578125 96.43125 -45.0078125 97.28125 C-67.5078125 119.78125 -90.0078125 142.28125 -112.5078125 164.78125 C-113.3328125 165.626875 -114.1578125 166.4725 -115.0078125 167.34375 C-117.5078125 169.78125 -117.5078125 169.78125 -119.8828125 171.59375 C-122.17013948 173.49985581 -123.90584565 175.33632877 -125.8203125 177.59375 C-128.22326467 180.41370037 -130.67867211 182.88988762 -133.5078125 185.28125 C-136.27051091 187.61891789 -138.67014461 190.01855159 -141.0078125 192.78125 C-143.92735361 196.23161677 -147.0949372 199.08574013 -150.5390625 202 C-152.54405916 203.8140446 -154.26226207 205.71832677 -156.0078125 207.78125 C-158.34548039 210.54394841 -160.74511409 212.94358211 -163.5078125 215.28125 C-167.0025731 218.24199496 -169.95574098 221.44743453 -172.91796875 224.93359375 C-174.99345459 227.34564486 -177.22874618 229.56215911 -179.5078125 231.78125 C-180.3328125 232.60625 -181.1578125 233.43125 -182.0078125 234.28125 C-184.5078125 236.78125 -187.0078125 239.28125 -189.5078125 241.78125 C-190.3534375 242.6475 -191.1990625 243.51375 -192.0703125 244.40625 C-194.5078125 246.78125 -194.5078125 246.78125 -196.7578125 248.15625 C-198.78429485 249.79403323 -198.78429485 249.79403323 -199.6953125 252.96875 C-199.41873924 258.59240624 -196.41810634 260.99114961 -192.5078125 264.78125 C-191.6415625 265.668125 -190.7753125 266.555 -189.8828125 267.46875 C-188.7071875 268.6134375 -188.7071875 268.6134375 -187.5078125 269.78125 C-122.5078125 334.78125 -122.5078125 334.78125 -120.0078125 337.34375 C-117.61390282 339.77581247 -117.61390282 339.77581247 -115.1328125 341.59375 C-112.13289255 344.09368329 -109.73641524 346.8671364 -107.203125 349.828125 C-105.0847031 352.26870323 -102.82265217 354.52732716 -100.5078125 356.78125 C-25.5078125 431.78125 -25.5078125 431.78125 -23.0078125 434.40625 C-20.54080086 436.74991106 -18.65431196 438.47660388 -15.5078125 439.78125 C-10.39365615 438.92889061 -7.91722195 436.54034247 -4.5078125 432.78125 C17.15885417 411.11458333 38.82552083 389.44791667 60.4921875 367.78125 C61.0490625 367.12125 61.6059375 366.46125 62.1796875 365.78125 C69.38451472 359.55004808 76.41879865 357.94275325 85.8671875 358.3046875 C94.16438089 359.39548232 99.9003713 363.16802719 105.01953125 369.703125 C105.50550781 370.38890625 105.99148438 371.0746875 106.4921875 371.78125 C106.92660156 372.36390625 107.36101562 372.9465625 107.80859375 373.546875 C111.79541751 379.93690612 111.38615186 387.53784646 110.4921875 394.78125 C108.6520844 400.39611004 105.61051496 405.52091125 101.4921875 409.78125 C100.8321875 409.78125 100.1721875 409.78125 99.4921875 409.78125 C99.2240625 410.420625 98.9559375 411.06 98.6796875 411.71875 C97.4921875 413.78125 97.4921875 413.78125 94.4921875 414.78125 C94.1621875 415.44125 93.8321875 416.10125 93.4921875 416.78125 C93.1621875 417.44125 92.8321875 418.10125 92.4921875 418.78125 C91.5021875 419.11125 90.5121875 419.44125 89.4921875 419.78125 C89.1621875 420.44125 88.8321875 421.10125 88.4921875 421.78125 C88.1621875 422.44125 87.8321875 423.10125 87.4921875 423.78125 C86.5021875 424.11125 85.5121875 424.44125 84.4921875 424.78125 C84.1621875 425.77125 83.8321875 426.76125 83.4921875 427.78125 C81.90168858 429.35062885 81.90168858 429.35062885 79.88685608 431.01570129 C75.77702913 434.50543861 71.96286919 438.19426047 68.17749023 442.0300293 C67.49506256 442.71712982 66.81263489 443.40423035 66.10952759 444.1121521 C64.642403 445.58969991 63.17638793 447.06835012 61.71139336 448.54800987 C59.3890376 450.89256361 57.06258567 453.23297958 54.73487854 455.57221985 C48.12208246 462.21845327 41.51354699 468.86887774 34.9152832 475.52954102 C30.86657009 479.61595542 26.810532 483.6949758 22.74974251 487.7693882 C21.20924212 489.31792219 19.6715192 490.86922455 18.13668633 492.42337608 C15.99050973 494.59611081 13.83513021 496.75931126 11.67749023 498.9206543 C11.05132309 499.55917831 10.42515594 500.19770233 9.78001404 500.85557556 C1.67599133 508.92314059 -5.57903536 511.14897608 -16.86694336 511.23657227 C-26.99754295 511.02015708 -33.78047226 505.84926416 -41.14453125 499.296875 C-42.5078125 497.78125 -42.5078125 497.78125 -42.5078125 495.78125 C-43.1471875 495.513125 -43.7865625 495.245 -44.4453125 494.96875 C-46.5078125 493.78125 -46.5078125 493.78125 -47.5078125 490.78125 C-48.1678125 490.45125 -48.8278125 490.12125 -49.5078125 489.78125 C-51.5078125 488.78125 -51.5078125 488.78125 -52.5078125 485.78125 C-53.1678125 485.45125 -53.8278125 485.12125 -54.5078125 484.78125 C-56.5078125 483.78125 -56.5078125 483.78125 -57.5078125 480.78125 C-58.82174281 480.07711267 -60.15821126 479.41433665 -61.5078125 478.78125 C-63.20367432 477.33935547 -63.20367432 477.33935547 -64.89941406 475.6484375 C-65.539776 475.01437988 -66.18013794 474.38032227 -66.83990479 473.72705078 C-67.85887848 472.70200439 -67.85887848 472.70200439 -68.8984375 471.65625 C-69.60305115 470.9535498 -70.30766479 470.25084961 -71.03363037 469.52685547 C-72.51869603 468.04314896 -74.00124631 466.55692108 -75.48144531 465.06835938 C-77.75625575 462.78281409 -80.0415661 460.50815983 -82.328125 458.234375 C-83.76887118 456.79230781 -85.20899715 455.34962065 -86.6484375 453.90625 C-87.33585022 453.22288574 -88.02326294 452.53952148 -88.73150635 451.83544922 C-89.35925964 451.2013916 -89.98701294 450.56733398 -90.63378906 449.9140625 C-91.19020081 449.35605957 -91.74661255 448.79805664 -92.31988525 448.22314453 C-93.5078125 446.78125 -93.5078125 446.78125 -93.5078125 444.78125 C-94.1471875 444.513125 -94.7865625 444.245 -95.4453125 443.96875 C-97.5078125 442.78125 -97.5078125 442.78125 -98.5078125 439.78125 C-99.1678125 439.45125 -99.8278125 439.12125 -100.5078125 438.78125 C-102.5078125 437.78125 -102.5078125 437.78125 -103.5078125 434.78125 C-104.1678125 434.45125 -104.8278125 434.12125 -105.5078125 433.78125 C-107.5078125 432.78125 -107.5078125 432.78125 -108.5078125 429.78125 C-109.1678125 429.45125 -109.8278125 429.12125 -110.5078125 428.78125 C-112.5078125 427.78125 -112.5078125 427.78125 -113.5078125 424.78125 C-114.1678125 424.45125 -114.8278125 424.12125 -115.5078125 423.78125 C-117.5078125 422.78125 -117.5078125 422.78125 -118.5078125 419.78125 C-119.1678125 419.45125 -119.8278125 419.12125 -120.5078125 418.78125 C-122.5078125 417.78125 -122.5078125 417.78125 -123.5078125 414.78125 C-124.1678125 414.45125 -124.8278125 414.12125 -125.5078125 413.78125 C-127.5078125 412.78125 -127.5078125 412.78125 -128.5078125 409.78125 C-129.1678125 409.45125 -129.8278125 409.12125 -130.5078125 408.78125 C-132.5078125 407.78125 -132.5078125 407.78125 -133.5078125 404.78125 C-134.05856445 404.51376953 -134.60931641 404.24628906 -135.17675781 403.97070312 C-138.62968826 402.20879726 -141.10087248 399.47302083 -143.8046875 396.75 C-144.69513763 395.86242004 -144.69513763 395.86242004 -145.60357666 394.95690918 C-146.85324968 393.70859419 -148.10041242 392.45776177 -149.34521484 391.20458984 C-151.25789202 389.28117003 -153.18104369 387.36868901 -155.10546875 385.45703125 C-156.31835048 384.24282861 -157.53061202 383.02800607 -158.7421875 381.8125 C-159.60925323 380.95150696 -159.60925323 380.95150696 -160.49383545 380.07312012 C-164.5078125 376.01118434 -164.5078125 376.01118434 -164.5078125 373.78125 C-165.1471875 373.513125 -165.7865625 373.245 -166.4453125 372.96875 C-168.5078125 371.78125 -168.5078125 371.78125 -169.5078125 368.78125 C-170.1678125 368.45125 -170.8278125 368.12125 -171.5078125 367.78125 C-173.5078125 366.78125 -173.5078125 366.78125 -174.5078125 363.78125 C-175.1678125 363.45125 -175.8278125 363.12125 -176.5078125 362.78125 C-178.5078125 361.78125 -178.5078125 361.78125 -179.5078125 358.78125 C-180.1678125 358.45125 -180.8278125 358.12125 -181.5078125 357.78125 C-183.5078125 356.78125 -183.5078125 356.78125 -184.5078125 353.78125 C-185.1678125 353.45125 -185.8278125 353.12125 -186.5078125 352.78125 C-188.5078125 351.78125 -188.5078125 351.78125 -189.5078125 348.78125 C-190.1678125 348.45125 -190.8278125 348.12125 -191.5078125 347.78125 C-193.5078125 346.78125 -193.5078125 346.78125 -194.5078125 343.78125 C-195.1678125 343.45125 -195.8278125 343.12125 -196.5078125 342.78125 C-198.5078125 341.78125 -198.5078125 341.78125 -199.5078125 338.78125 C-200.1678125 338.45125 -200.8278125 338.12125 -201.5078125 337.78125 C-203.5078125 336.78125 -203.5078125 336.78125 -204.5078125 333.78125 C-205.82573118 333.0846062 -207.16185174 332.42204002 -208.5078125 331.78125 C-209.83511878 330.63270797 -211.11572785 329.42907426 -212.35839844 328.18945312 C-213.09886414 327.45529175 -213.83932983 326.72113037 -214.60223389 325.96472168 C-215.39091858 325.17198853 -216.17960327 324.37925537 -216.9921875 323.5625 C-218.21557831 322.34197937 -218.21557831 322.34197937 -219.46368408 321.09680176 C-221.18414228 319.37770354 -222.9020814 317.65608106 -224.61767578 315.93212891 C-227.25462182 313.28445366 -229.9020863 310.64763469 -232.55078125 308.01171875 C-234.21939192 306.341787 -235.88738236 304.67123522 -237.5546875 303 C-238.35146912 302.20726685 -239.14825073 301.41453369 -239.96917725 300.59777832 C-240.6970343 299.86361694 -241.42489136 299.12945557 -242.17480469 298.37304688 C-243.142659 297.40280579 -243.142659 297.40280579 -244.13006592 296.41296387 C-245.5078125 294.78125 -245.5078125 294.78125 -245.5078125 292.78125 C-246.1471875 292.513125 -246.7865625 292.245 -247.4453125 291.96875 C-249.5078125 290.78125 -249.5078125 290.78125 -250.5078125 287.78125 C-251.1678125 287.45125 -251.8278125 287.12125 -252.5078125 286.78125 C-254.5078125 285.78125 -254.5078125 285.78125 -255.5078125 282.78125 C-256.1678125 282.45125 -256.8278125 282.12125 -257.5078125 281.78125 C-259.5078125 280.78125 -259.5078125 280.78125 -260.5078125 277.78125 C-261.42820312 277.32685547 -261.42820312 277.32685547 -262.3671875 276.86328125 C-266.04598619 275.0037425 -267.43290787 272.09535179 -269.2890625 268.515625 C-272.14634681 259.76061282 -272.32201546 249.00289827 -269.2890625 240.2734375 C-266.86257092 236.02707724 -264.89895073 233.88015884 -260.5078125 231.78125 C-259.82513112 230.45604497 -259.1571084 229.12312818 -258.5078125 227.78125 C-257.5178125 227.45125 -256.5278125 227.12125 -255.5078125 226.78125 C-255.0128125 225.79125 -255.0128125 225.79125 -254.5078125 224.78125 C-253.5078125 222.78125 -253.5078125 222.78125 -250.5078125 221.78125 C-249.83559347 220.45070733 -249.17019902 219.11671483 -248.5078125 217.78125 C-246.90298757 215.99126323 -245.23751108 214.25511862 -243.5390625 212.55371094 C-243.03479736 212.04594116 -242.53053223 211.53817139 -242.01098633 211.01501465 C-240.34824714 209.34349561 -238.67832627 207.6793715 -237.0078125 206.015625 C-235.84931643 204.85578163 -234.69111738 203.6956415 -233.53320312 202.53521729 C-231.10870814 200.10777647 -228.68063888 197.68398366 -226.25 195.26269531 C-223.12917808 192.15329303 -220.01745386 189.03496488 -216.9083252 185.91387558 C-214.52024325 183.51858217 -212.12743757 181.12805356 -209.7331543 178.73896027 C-208.58338436 177.59052748 -207.43510648 176.44059895 -206.28833008 175.28917694 C-204.68918531 173.68497591 -203.08381 172.08728808 -201.4765625 170.49121094 C-200.56326172 169.57950134 -199.64996094 168.66779175 -198.70898438 167.72845459 C-196.5078125 165.78125 -196.5078125 165.78125 -194.5078125 165.78125 C-194.2396875 165.141875 -193.9715625 164.5025 -193.6953125 163.84375 C-192.5078125 161.78125 -192.5078125 161.78125 -189.5078125 160.78125 C-189.1778125 160.12125 -188.8478125 159.46125 -188.5078125 158.78125 C-187.5078125 156.78125 -187.5078125 156.78125 -184.5078125 155.78125 C-184.1778125 155.12125 -183.8478125 154.46125 -183.5078125 153.78125 C-182.5078125 151.78125 -182.5078125 151.78125 -179.5078125 150.78125 C-179.1778125 150.12125 -178.8478125 149.46125 -178.5078125 148.78125 C-177.5078125 146.78125 -177.5078125 146.78125 -174.5078125 145.78125 C-173.8271083 144.45502829 -173.16324056 143.12014368 -172.5078125 141.78125 C-171.0552502 140.14527714 -169.54354291 138.56117406 -167.99804688 137.01269531 C-167.54254959 136.55369339 -167.08705231 136.09469147 -166.61775208 135.6217804 C-165.1173332 134.11258945 -163.60975365 132.61079588 -162.1015625 131.109375 C-161.05516773 130.06163275 -160.00906999 129.01359378 -158.96325684 127.965271 C-156.77415207 125.7732215 -154.58147981 123.5848212 -152.38623047 121.39892578 C-149.56807481 118.59219246 -146.75902995 115.77653862 -143.95256805 112.95811844 C-141.79610142 110.7944397 -139.63491249 108.63552872 -137.47224426 106.47805023 C-136.43411795 105.44126075 -135.39748262 104.40297619 -134.36235046 103.36319733 C-132.91892238 101.91471181 -131.46842339 100.47328276 -130.01757812 99.03222656 C-129.19310181 98.20934143 -128.36862549 97.3864563 -127.51916504 96.53863525 C-125.5078125 94.78125 -125.5078125 94.78125 -123.5078125 94.78125 C-123.2396875 94.141875 -122.9715625 93.5025 -122.6953125 92.84375 C-121.5078125 90.78125 -121.5078125 90.78125 -118.5078125 89.78125 C-118.1778125 89.12125 -117.8478125 88.46125 -117.5078125 87.78125 C-116.5078125 85.78125 -116.5078125 85.78125 -113.5078125 84.78125 C-113.1778125 84.12125 -112.8478125 83.46125 -112.5078125 82.78125 C-111.5078125 80.78125 -111.5078125 80.78125 -108.5078125 79.78125 C-108.1778125 79.12125 -107.8478125 78.46125 -107.5078125 77.78125 C-106.5078125 75.78125 -106.5078125 75.78125 -103.5078125 74.78125 C-102.8271083 73.45502829 -102.16324056 72.12014368 -101.5078125 70.78125 C-100.0552502 69.14527714 -98.54354291 67.56117406 -96.99804688 66.01269531 C-96.54254959 65.55369339 -96.08705231 65.09469147 -95.61775208 64.6217804 C-94.1173332 63.11258945 -92.60975365 61.61079588 -91.1015625 60.109375 C-90.05516773 59.06163275 -89.00906999 58.01359378 -87.96325684 56.965271 C-85.77415207 54.7732215 -83.58147981 52.5848212 -81.38623047 50.39892578 C-78.56807481 47.59219246 -75.75902995 44.77653862 -72.95256805 41.95811844 C-70.79610142 39.7944397 -68.63491249 37.63552872 -66.47224426 35.47805023 C-65.43411795 34.44126075 -64.39748262 33.40297619 -63.36235046 32.36319733 C-61.91892238 30.91471181 -60.46842339 29.47328276 -59.01757812 28.03222656 C-58.19310181 27.20934143 -57.36862549 26.3864563 -56.51916504 25.53863525 C-54.5078125 23.78125 -54.5078125 23.78125 -52.5078125 23.78125 C-52.2396875 23.141875 -51.9715625 22.5025 -51.6953125 21.84375 C-50.5078125 19.78125 -50.5078125 19.78125 -47.5078125 18.78125 C-47.1778125 18.12125 -46.8478125 17.46125 -46.5078125 16.78125 C-45.5078125 14.78125 -45.5078125 14.78125 -42.5078125 13.78125 C-42.1778125 13.12125 -41.8478125 12.46125 -41.5078125 11.78125 C-40.5078125 9.78125 -40.5078125 9.78125 -37.5078125 8.78125 C-37.20488281 8.16765625 -36.90195313 7.5540625 -36.58984375 6.921875 C-34.730305 3.24307631 -31.82191429 1.85615463 -28.2421875 0 C-19.48717532 -2.85728431 -8.72946077 -3.03295296 0 0 Z " fill="#1488FE" transform="translate(270.5078125,1.21875)"/>
<path d="M0 0 C7.28934207 6.6008909 14.23955077 13.54821774 21.21606445 20.47631836 C22.30171975 21.55398814 22.30171975 21.55398814 23.40930748 22.65342903 C27.23080059 26.44838809 31.04874248 30.246883 34.86425781 34.04785156 C38.00448658 37.17469682 41.15184443 40.29409088 44.30566406 43.40722656 C48.14093192 47.19305594 51.96366474 50.99112674 55.77783775 54.79820442 C57.22357003 56.23725533 58.67352862 57.67207415 60.12790871 59.10238457 C78.23198812 76.92348603 78.23198812 76.92348603 78.55566406 89.67504883 C78.54027588 90.49763184 78.5248877 91.32021484 78.5090332 92.16772461 C78.4994458 93.0354248 78.4898584 93.903125 78.47998047 94.79711914 C78.12311028 103.48338798 75.1690855 109.89236474 68.98168945 116.06616211 C67.85412259 117.03264799 66.69916972 117.96827107 65.5168457 118.86694336 C62.7922879 121.07686246 60.65244579 123.74655269 58.3840332 126.40991211 C56.29412573 128.83139144 54.05003255 131.06201472 51.7590332 133.29272461 C50.9340332 134.11772461 50.1090332 134.94272461 49.2590332 135.79272461 C32.7590332 152.29272461 16.2590332 168.79272461 -0.2409668 185.29272461 C-1.2309668 185.29272461 -2.2209668 185.29272461 -3.2409668 185.29272461 C-3.5709668 186.28272461 -3.9009668 187.27272461 -4.2409668 188.29272461 C-5.94799805 189.20678711 -5.94799805 189.20678711 -8.0534668 189.91772461 C-8.74053711 190.15749023 -9.42760742 190.39725586 -10.13549805 190.64428711 C-18.67653839 193.27473738 -27.03666603 193.15054629 -35.2409668 189.29272461 C-42.09900722 184.52004444 -47.58676291 178.69786869 -49.2409668 170.29272461 C-50.25966387 160.28628248 -49.09584436 152.60888827 -43.2409668 144.29272461 C-41.34418479 142.31164118 -39.40412655 140.62141876 -37.24487305 138.93334961 C-35.13838164 137.20873676 -33.48753788 135.37747005 -31.7409668 133.29272461 C-29.40329891 130.5300262 -27.00366521 128.1303925 -24.2409668 125.79272461 C-20.74620619 122.83197965 -17.79303832 119.62654008 -14.83081055 116.14038086 C-12.75532471 113.72832975 -10.52003311 111.5118155 -8.2409668 109.29272461 C-7.0034668 108.05522461 -7.0034668 108.05522461 -5.7409668 106.79272461 C-4.5034668 105.55522461 -4.5034668 105.55522461 -3.2409668 104.29272461 C-2.3953418 103.42647461 -1.5497168 102.56022461 -0.6784668 101.66772461 C1.7590332 99.29272461 1.7590332 99.29272461 4.0090332 97.85522461 C5.96628371 96.32422924 5.96628371 96.32422924 6.9465332 93.60522461 C6.48028586 85.3681883 -4.78558549 77.68239835 -10.3737793 72.20288086 C-11.33880977 71.2499133 -12.30330746 70.29640595 -13.26730347 69.34239197 C-17.32076128 65.33120246 -21.37702283 61.32298177 -25.44946289 57.33105469 C-27.9561704 54.87322184 -30.45269999 52.40542802 -32.94314194 49.93111992 C-34.33675965 48.552015 -35.74101913 47.18369001 -37.14553833 45.81568909 C-44.07912134 38.91063281 -49.78442377 32.39883384 -49.98730469 22.25268555 C-49.96788818 21.46152344 -49.94847168 20.67036133 -49.9284668 19.85522461 C-49.91485107 19.02410156 -49.90123535 18.19297852 -49.88720703 17.33666992 C-49.53095878 9.04963764 -46.98899158 4.09072305 -41.19018555 -1.78540039 C-28.79347432 -12.61876082 -11.67647313 -10.4170451 0 0 Z " fill="#F74754" transform="translate(434.240966796875,164.707275390625)"/>
<path d="M0 0 C0 0.66 0 1.32 0 2 C0.99 2.2784375 0.99 2.2784375 2 2.5625 C13.02731769 7.84642306 21.73172516 19.79008246 26 31 C31.74205686 48.80978947 31.41017303 65.97667242 23.54296875 83.1875 C22.15187685 85.59530023 20.69050731 87.7942499 19 90 C18.18595703 91.06347656 18.18595703 91.06347656 17.35546875 92.1484375 C15.98527426 93.83534362 14.50221069 95.42950701 13 97 C12.34 97 11.68 97 11 97 C10.62875 97.9590625 10.62875 97.9590625 10.25 98.9375 C9 101 9 101 6.9375 101.5625 C5.9784375 101.7790625 5.9784375 101.7790625 5 102 C4.505 103.485 4.505 103.485 4 105 C-10.127515 114.50475015 -26.55022263 117.91332318 -43.3125 114.8125 C-53.43398148 112.7347162 -61.75283808 109.2253709 -70 103 C-70.74121094 102.44828125 -71.48242188 101.8965625 -72.24609375 101.328125 C-82.95522636 92.64203477 -91.27376015 78.92464285 -92.81689453 65.16796875 C-94.42763526 46.09679847 -91.3240202 31.29659387 -81 15 C-59.80023952 -7.96640719 -28.14644205 -14.26376754 0 0 Z " fill="#F64755" transform="translate(289,203)"/>
<path d="M0 0 C0.79148437 0.47308594 1.58296875 0.94617187 2.3984375 1.43359375 C8.74023634 5.36105865 14.1334175 10.35110674 19 16 C19 16.66 19 17.32 19 18 C19.639375 18.268125 20.27875 18.53625 20.9375 18.8125 C23 20 23 20 24 23 C24.66 23.33 25.32 23.66 26 24 C26.66 24.33 27.32 24.66 28 25 C28.33 25.99 28.66 26.98 29 28 C29.66 28.33 30.32 28.66 31 29 C31.66 29.33 32.32 29.66 33 30 C33.33 30.99 33.66 31.98 34 33 C34.66 33.33 35.32 33.66 36 34 C36.66 34.33 37.32 34.66 38 35 C38.33 35.99 38.66 36.98 39 38 C40.31101282 38.70955451 41.64807826 39.37188391 43 40 C49.78472821 45.34278373 54.26782629 51.95243882 55.515625 60.5546875 C55.95446433 70.30888898 53.87516248 78.11757255 47.58203125 85.7109375 C46.1875 87 46.1875 87 43 89 C42.38898438 89.38800781 41.77796875 89.77601563 41.1484375 90.17578125 C34.19403371 93.96554062 26.72253272 93.95502537 19 93 C10.01740677 90.12368406 3.8310089 84.07215585 -2.1484375 77.0390625 C-3.98949817 75.01156531 -5.91015381 73.26709002 -8 71.5 C-11.45036677 68.58045889 -14.30449013 65.4128753 -17.21875 61.96875 C-19.0327946 59.96375334 -20.93707677 58.24555043 -23 56.5 C-25.76269841 54.16233211 -28.16233211 51.76269841 -30.5 49 C-33.46074496 45.5052394 -36.66618453 42.55207152 -40.15234375 39.58984375 C-42.56439486 37.51435791 -44.78090911 35.27906632 -47 33 C-47.825 32.175 -48.65 31.35 -49.5 30.5 C-62 18 -62 18 -64.3125 15.1875 C-68.07450528 12.12540268 -70.25580313 12.59794942 -75 13 C-55.60888907 -12.48546008 -26.7116537 -17.11803159 0 0 Z " fill="#37A6F5" transform="translate(326,58)"/>
<path d="M0 0 C0 0.33 0 0.66 0 1 C-1.918125 1.309375 -1.918125 1.309375 -3.875 1.625 C-9.65122041 2.87910808 -14.09639301 5.8205346 -19 9 C-19.99 9.495 -19.99 9.495 -21 10 C-19.12127603 5.03325847 -15.41776015 3.55898358 -10.91015625 1.1953125 C-6.95089012 -0.43090956 -4.21654956 -0.47734523 0 0 Z " fill="#2DB8FA" transform="translate(254,0)"/>
</svg>
